<?xml version="1.0" encoding="UTF-8"?>
<svg xmlns="http://www.w3.org/2000/svg" xmlns:xlink="http://www.w3.org/1999/xlink" viewBox="0 0 48 48" width="48px" height="48px">
<g id="surface147416991">
<path style=" stroke:none;fill-rule:nonzero;fill:rgb(100%,100%,100%);fill-opacity:1;" d="M 29.175781 1.546875 C 26.605469 1.433594 25.304688 2.832031 24.566406 3.839844 C 23.515625 3.515625 21.859375 3.1875 19.90625 4.222656 C 18.179688 5.136719 17.390625 6.414062 16.921875 7.398438 C 16.785156 7.363281 16.761719 7.402344 16.617188 7.332031 C 16.117188 7.085938 15.605469 6.800781 15.609375 5.050781 C 15.613281 4.488281 15.300781 3.972656 14.800781 3.714844 C 14.304688 3.457031 13.703125 3.496094 13.242188 3.824219 C 10.378906 5.851562 9.285156 8.769531 9.765625 11.289062 C 10.132812 13.199219 11.332031 14.851562 13.015625 15.8125 C 12.5625 16.722656 11.976562 17.984375 11.414062 19.441406 C 10.273438 22.398438 9.167969 26.160156 9.621094 29.675781 C 10.046875 32.953125 11.191406 35.820312 13.25 37.984375 C 13.691406 38.445312 14.179688 38.863281 14.695312 39.253906 C 14.816406 40.027344 15.121094 41.425781 15.976562 42.867188 C 17.234375 44.984375 19.875 47.132812 24.140625 47.042969 C 28.792969 46.949219 32.585938 42.738281 32.601562 37.390625 C 33.25 36.621094 33.882812 35.71875 34.421875 34.65625 C 35.289062 34.746094 36.175781 34.726562 37.046875 34.4375 C 38.324219 34.019531 39.582031 33.015625 40.046875 31.476562 C 40.644531 29.503906 39.992188 28.113281 39.304688 27.136719 C 40.871094 25.230469 43.734375 20.785156 41.796875 15.527344 C 40.8125 12.847656 39.296875 11.570312 38.382812 10.910156 C 38.457031 10.550781 38.519531 10.488281 38.535156 9.964844 C 38.570312 8.84375 38.386719 7.257812 37.09375 6.136719 C 35.664062 4.894531 34.253906 4.652344 33.21875 4.597656 C 33.132812 4.285156 33.210938 4.25 33.019531 3.890625 C 32.453125 2.824219 31.117188 1.632812 29.175781 1.546875 Z M 29.042969 4.542969 C 29.992188 4.585938 30.15625 4.894531 30.367188 5.296875 C 30.582031 5.699219 30.609375 6.101562 30.609375 6.101562 C 30.628906 6.515625 30.8125 6.90625 31.125 7.175781 C 31.433594 7.449219 31.84375 7.578125 32.253906 7.539062 C 32.253906 7.539062 34.035156 7.457031 35.125 8.402344 C 35.410156 8.648438 35.558594 9.195312 35.535156 9.867188 C 35.515625 10.539062 35.347656 11.09375 35.347656 11.09375 C 35.140625 11.769531 35.433594 12.503906 36.050781 12.847656 C 36.050781 12.847656 38.019531 13.945312 38.984375 16.5625 C 39.878906 18.992188 39.320312 21.230469 38.492188 22.914062 C 38.28125 20.660156 37.671875 18.359375 35.886719 16.167969 C 35.886719 16.167969 35.886719 16.167969 35.882812 16.167969 C 35.21875 15.355469 33.675781 13.621094 31.34375 12.6875 C 30.175781 12.21875 28.800781 11.988281 27.300781 12.179688 C 26.015625 12.347656 24.628906 12.917969 23.210938 13.835938 C 22.476562 13.195312 21.652344 12.742188 20.804688 12.617188 C 19.695312 12.460938 18.617188 12.664062 17.664062 12.972656 C 16.988281 13.191406 16.40625 13.464844 15.878906 13.734375 C 15.710938 13.636719 15.519531 13.570312 15.324219 13.542969 C 13.96875 13.160156 12.964844 12.042969 12.710938 10.726562 C 12.554688 9.902344 12.824219 8.984375 13.390625 8.058594 C 13.902344 8.980469 14.578125 9.671875 15.292969 10.023438 C 16.648438 10.691406 17.953125 10.539062 17.953125 10.539062 C 18.554688 10.480469 19.058594 10.074219 19.238281 9.5 C 19.238281 9.5 19.972656 7.582031 21.3125 6.871094 C 22.417969 6.285156 24.546875 6.933594 24.546875 6.933594 C 25.265625 7.226562 26.085938 6.921875 26.441406 6.234375 C 26.441406 6.234375 27.402344 4.472656 29.042969 4.542969 Z M 28.378906 14.070312 C 29.1875 14.085938 29.921875 14.273438 30.597656 14.542969 C 32.410156 15.269531 33.765625 16.738281 34.335938 17.433594 C 36.453125 20.027344 36.59375 22.667969 36.601562 25.664062 C 36.53125 25.738281 36.34375 25.949219 36.34375 25.949219 C 36.035156 26.242188 35.863281 26.65625 35.871094 27.082031 C 35.882812 27.511719 36.074219 27.914062 36.402344 28.1875 C 36.402344 28.1875 37.609375 29.175781 37.175781 30.609375 C 37.019531 31.132812 36.703125 31.394531 36.105469 31.589844 C 35.511719 31.785156 34.679688 31.785156 34.054688 31.601562 C 33.3125 31.390625 32.527344 31.773438 32.242188 32.492188 C 31.652344 33.988281 30.859375 35.097656 30.074219 35.941406 C 30.007812 36.003906 29.945312 36.074219 29.890625 36.148438 C 28.441406 37.628906 27.070312 38.144531 27.070312 38.144531 C 26.300781 38.441406 25.914062 39.308594 26.210938 40.082031 C 26.507812 40.855469 27.375 41.242188 28.148438 40.945312 C 28.148438 40.945312 28.484375 40.789062 28.988281 40.488281 C 28.03125 42.667969 26.105469 44.003906 24.082031 44.042969 C 20.761719 44.113281 19.402344 42.761719 18.558594 41.335938 C 18.535156 41.300781 18.523438 41.265625 18.503906 41.230469 C 19.554688 41.589844 20.683594 41.863281 21.90625 42.03125 C 22.4375 42.105469 22.96875 41.886719 23.296875 41.464844 C 23.625 41.042969 23.703125 40.476562 23.5 39.976562 C 23.296875 39.480469 22.84375 39.132812 22.316406 39.058594 C 19.144531 38.625 16.957031 37.523438 15.425781 35.914062 C 13.890625 34.304688 12.964844 32.113281 12.601562 29.292969 C 12.265625 26.714844 13.160156 23.253906 14.214844 20.519531 C 14.433594 19.953125 14.652344 19.445312 14.871094 18.953125 C 16.015625 18.363281 17.785156 17.851562 19.320312 17.523438 C 19.839844 17.425781 20.191406 16.941406 20.125 16.414062 C 20.058594 15.890625 19.597656 15.511719 19.070312 15.542969 C 19.015625 15.546875 18.957031 15.554688 18.902344 15.566406 C 18.03125 15.753906 17.085938 15.980469 16.160156 16.269531 C 16.226562 16.148438 16.414062 15.792969 16.414062 15.792969 C 16.417969 15.785156 16.421875 15.777344 16.425781 15.773438 C 16.429688 15.761719 16.433594 15.753906 16.4375 15.746094 C 16.445312 15.722656 16.457031 15.703125 16.46875 15.683594 C 16.992188 15.398438 17.613281 15.09375 18.285156 14.875 C 19.050781 14.625 19.839844 14.5 20.523438 14.601562 C 21.203125 14.699219 21.777344 14.96875 22.328125 15.664062 C 22.660156 16.089844 23.277344 16.171875 23.710938 15.847656 C 25.503906 14.503906 27.039062 14.046875 28.382812 14.070312 Z M 27.140625 15.042969 C 27.109375 15.042969 27.074219 15.042969 27.042969 15.042969 C 26.523438 15.070312 26.113281 15.492188 26.097656 16.011719 C 26.078125 16.53125 26.464844 16.976562 26.980469 17.035156 C 26.980469 17.035156 27.457031 17.101562 27.988281 17.492188 C 28.523438 17.886719 29.082031 18.527344 29.109375 20.0625 C 29.121094 20.617188 29.578125 21.054688 30.128906 21.042969 C 30.683594 21.035156 31.121094 20.578125 31.109375 20.023438 C 31.070312 17.949219 30.128906 16.589844 29.179688 15.886719 C 28.230469 15.183594 27.242188 15.050781 27.242188 15.050781 C 27.210938 15.046875 27.175781 15.042969 27.140625 15.042969 Z M 21.851562 19.03125 C 21.488281 19.035156 21.152344 19.238281 20.980469 19.558594 C 19.878906 21.535156 18.710938 22.785156 17.464844 23.832031 C 17.105469 24.136719 17.007812 24.648438 17.226562 25.0625 C 17.875 26.289062 18.601562 27.285156 19.386719 28.105469 C 19.632812 28.378906 20.003906 28.5 20.359375 28.417969 C 20.71875 28.335938 21 28.066406 21.097656 27.710938 C 21.199219 27.359375 21.097656 26.980469 20.832031 26.726562 C 20.328125 26.195312 19.863281 25.46875 19.40625 24.714844 C 20.558594 23.648438 21.699219 22.375 22.726562 20.53125 C 22.90625 20.222656 22.902344 19.839844 22.722656 19.53125 C 22.542969 19.21875 22.210938 19.03125 21.855469 19.035156 Z M 17.023438 19.046875 C 16.472656 19.046875 16.023438 19.945312 16.023438 21.046875 C 16.023438 22.152344 16.472656 23.046875 17.023438 23.046875 C 17.578125 23.046875 18.027344 22.152344 18.027344 21.046875 C 18.027344 19.945312 17.578125 19.046875 17.023438 19.046875 Z M 26.011719 21.054688 C 25.710938 21.070312 25.382812 21.097656 25.023438 21.144531 L 25.023438 21.878906 C 25.023438 21.878906 27.183594 21.878906 28.625 24.078125 C 28.625 24.078125 30.527344 20.855469 26.011719 21.054688 Z M 26.097656 26.039062 C 25.636719 26.039062 25.234375 26.355469 25.128906 26.804688 C 25.019531 27.253906 25.234375 27.71875 25.644531 27.929688 C 25.644531 27.929688 25.828125 28.128906 25.878906 28.160156 C 22.5 29.742188 18.957031 30.011719 14.945312 28.601562 C 14.609375 28.484375 14.234375 28.550781 13.964844 28.78125 C 13.695312 29.011719 13.566406 29.367188 13.628906 29.71875 C 13.84375 30.953125 14.667969 32.078125 15.808594 32.984375 C 16.945312 33.894531 18.449219 34.5625 20.121094 34.542969 C 24.25 34.503906 26.65625 31.726562 27.070312 31.226562 C 27.039062 31.648438 27.078125 32.007812 26.894531 32.554688 C 26.71875 33.078125 26.996094 33.644531 27.519531 33.824219 C 28.042969 34 28.613281 33.71875 28.789062 33.195312 C 29.582031 30.859375 29.097656 29.003906 28.34375 27.847656 C 27.59375 26.695312 26.578125 26.160156 26.578125 26.160156 C 26.429688 26.082031 26.265625 26.039062 26.097656 26.039062 Z M 24.691406 30.710938 C 23.730469 31.546875 22.296875 32.523438 20.101562 32.542969 C 18.984375 32.554688 17.890625 32.089844 17.050781 31.421875 C 16.9375 31.328125 16.957031 31.234375 16.851562 31.136719 C 19.589844 31.671875 22.210938 31.5 24.691406 30.710938 Z M 24.691406 30.710938 "/>
</g>
</svg>
